<svg width="1024" height="2190" viewBox="0 0 1024 2190" fill="none" xmlns="http://www.w3.org/2000/svg">
<path d="M314.83 65.2356L314.793 65.2548L314.756 65.274C287.814 79.1492 260.612 98.2783 239.617 116.957C229.129 126.288 220.607 135.138 214.558 142.774C208.195 150.808 206.193 155.485 205.851 156.804C200.122 183.984 223.704 207.096 247.186 203.216C247.441 203.13 248.081 202.905 249.139 202.432C250.735 201.718 252.736 200.687 254.991 199.361C259.572 196.666 264.235 193.32 267.749 190.178C299.812 161.377 336.113 137.544 370.14 122.89L370.248 122.844L370.356 122.799C405.102 108.22 465.406 95.2558 501.467 95.2558C537.527 95.2558 597.832 108.22 632.578 122.799L632.686 122.844L632.793 122.89C666.82 137.544 703.12 161.376 735.182 190.176C738.697 193.319 743.361 196.666 747.943 199.361C750.197 200.687 752.199 201.718 753.795 202.432C754.852 202.905 755.492 203.13 755.747 203.216C779.237 207.098 802.827 183.969 797.077 156.777C796.658 155.115 794.06 149.439 785.976 139.922C778.373 130.971 767.753 120.743 754.985 110.251C729.357 89.1936 697.156 68.7693 667.797 56.4503L667.722 56.4186L667.646 56.3864C638.43 43.9015 617.857 36.7666 595.852 32.3693C573.648 27.9324 548.96 26.075 511.23 25.2438C463.537 24.4042 435.485 25.7875 420.541 28.892C387.623 36.121 339.037 52.666 314.83 65.2356Z" stroke="#fff" stroke-width="50"/>
<path d="M449.761 279.261L449.719 279.276L449.677 279.291C436.036 284.237 421.208 292.445 408.588 301.73C395.447 311.4 387.254 320.357 384.292 325.741L384.288 325.749L384.283 325.758C366.341 358.324 399.589 391.4 430.408 376.722L430.609 376.626L430.812 376.534C435.929 374.208 446.207 367.805 453.189 362.544L453.277 362.477L453.365 362.412C481.483 341.608 521.449 341.608 549.567 362.412L549.622 362.452L549.677 362.493C564.612 373.67 576.426 378.702 585.347 380.103C593.469 381.379 600.125 379.85 606.687 375.337L606.698 375.33C623.927 363.494 628.192 341.64 618.499 326.062L618.384 325.877L618.272 325.69C605.659 304.61 580.065 286.84 547.547 277.511C515.296 268.258 479.561 268.338 449.761 279.261Z" stroke="#fff" stroke-width="50"/>
<rect y="478" width="1024" height="1712" rx="210" fill="#fff"/>
<rect x="124" y="750" width="776" height="1072" fill="#335252"/>
<rect x="296" y="1982" width="432" height="80" rx="30" fill="#335252"/>
</svg>
