<svg width="3027" height="2835" viewBox="0 0 3027 2835" fill="none" xmlns="http://www.w3.org/2000/svg">
<path d="M1335.94 8.05025C1062.43 46.4477 813.731 163.412 613.474 347.72C561.49 396.16 550.266 413.882 550.266 448.145C550.266 506.036 599.887 546.206 656.597 533.8C668.412 531.438 697.948 510.171 732.211 479.453C904.704 327.045 1070.7 241.98 1286.91 195.903C1358.39 180.544 1371.38 179.362 1513.16 179.362C1654.93 179.362 1668.52 180.544 1738.22 195.903C1956.2 242.57 2123.97 327.635 2294.1 479.453C2334.27 514.897 2357.9 531.438 2372.08 533.8C2428.79 544.434 2476.05 505.445 2476.05 448.145C2476.05 413.882 2464.82 396.16 2412.84 347.72C2212.58 162.822 1959.75 44.6755 1684.47 7.45952C1607.08 -2.5829 1412.14 -2.5829 1335.94 8.05025Z" fill="#fff"/>
<path d="M69.4109 356.582C31.0134 370.168 6.79346 402.068 6.79346 440.465C6.79346 449.326 98.9474 672.032 212.368 935.498L417.351 1413.99L505.961 1415.76C554.401 1416.35 597.524 1415.76 601.069 1414.58C609.339 1411.63 178.696 400.296 161.565 381.392C139.117 355.991 100.72 345.948 69.4109 356.582Z" fill="#fff"/>
<path d="M1392.06 357.172C1201.25 385.527 1037.62 456.415 895.843 572.198C836.77 620.638 805.461 656.082 801.326 680.302C790.693 737.603 829.681 784.861 886.982 784.861C918.291 784.861 927.742 779.545 983.862 729.923C1134.5 597.009 1311.13 530.847 1513.16 530.847C1716.37 530.847 1890.63 596.418 2042.45 729.923C2098.57 779.545 2108.02 784.861 2139.33 784.861C2200.18 784.861 2240.35 731.105 2222.62 672.623C2217.9 657.264 2203.13 637.769 2174.18 611.187C2047.77 491.268 1888.86 409.157 1709.87 370.759C1663.79 360.717 1627.76 357.763 1530.88 356.582C1464.13 355.4 1402.1 355.991 1392.06 357.172Z" fill="#fff"/>
<path d="M2886.6 364.261C2877.15 370.759 2865.93 379.029 2861.79 383.755C2858.25 388.481 2756.64 621.82 2636.14 901.826C2490.82 1240.91 2420.52 1412.81 2425.24 1414.58C2428.79 1415.76 2471.91 1416.35 2520.35 1415.76L2608.96 1413.99L2813.95 935.498C2932.09 660.808 3019.52 449.326 3019.52 439.284C3019.52 413.883 3001.8 382.574 2978.76 367.215C2953.36 350.084 2912.01 348.902 2886.6 364.261Z" fill="#fff"/>
<path d="M1389.1 722.244C1339.48 732.877 1266.23 757.097 1227.83 776.591C1144.54 818.533 1061.25 891.193 1052.39 929C1038.8 990.436 1093.15 1047.74 1154.58 1036.51C1165.81 1034.15 1186.48 1022.34 1200.66 1009.93C1244.37 971.532 1293.4 940.223 1338.3 921.32C1384.38 902.417 1466.49 885.286 1513.16 885.286C1559.82 885.286 1641.94 902.417 1688.01 921.32C1732.91 940.223 1781.94 971.532 1825.65 1009.93C1839.83 1022.34 1860.51 1034.15 1871.73 1036.51C1933.17 1047.74 1987.51 990.436 1973.93 929C1963.88 885.876 1858.73 800.811 1766.58 763.004C1680.33 726.97 1637.8 718.7 1527.92 716.337C1459.4 715.155 1415.1 716.927 1389.1 722.244Z" fill="#fff"/>
<path d="M1426.32 1076.09C1379.65 1092.63 1328.85 1129.26 1312.9 1157.61C1270.96 1232.04 1348.93 1314.16 1426.32 1278.12C1436.95 1273.4 1454.08 1262.76 1465.31 1254.49C1493.07 1234.41 1533.24 1234.41 1561.01 1254.49C1609.45 1289.94 1650.8 1296.43 1685.06 1273.4C1724.64 1246.81 1737.04 1195.42 1712.23 1156.43C1663.79 1077.27 1528.52 1039.47 1426.32 1076.09Z" fill="#fff"/>
<path d="M182.24 1606.57C95.9937 1636.1 32.7855 1704.04 9.74705 1792.06C-3.24902 1844.04 -3.24902 2401.69 9.74705 2453.68C22.1524 2499.75 44.0094 2539.33 77.0903 2572.41C132.619 2629.12 184.603 2649.8 286.8 2655.11L355.324 2659.25V2713.01C355.324 2752.58 358.278 2772.08 365.958 2787.44C397.266 2850.65 490.602 2850.65 521.91 2787.44C529.59 2772.08 532.544 2752.58 532.544 2711.82V2657.48H1513.16H2493.77V2711.82C2493.77 2752.58 2496.72 2772.08 2504.4 2787.44C2535.71 2850.65 2629.05 2850.65 2660.36 2787.44C2668.03 2772.08 2670.99 2752.58 2670.99 2713.01V2659.25L2739.51 2655.11C2841.71 2649.8 2897.24 2627.35 2950.99 2571.23C2982.3 2538.74 3004.75 2498.57 3016.57 2453.68C3029.56 2401.69 3029.56 1844.04 3016.57 1792.06C2992.94 1702.86 2930.91 1635.51 2842.89 1605.98C2807.45 1594.16 2799.77 1594.16 1511.97 1594.16C230.68 1594.75 215.912 1594.75 182.24 1606.57ZM1921.35 1962.19C1957.98 1986.41 1962.11 2003.54 1962.11 2122.87C1962.11 2212.07 1960.34 2232.74 1951.48 2249.87C1920.17 2313.08 1826.83 2313.08 1795.53 2249.87C1786.66 2232.74 1784.89 2212.07 1784.89 2122.87C1784.89 2033.67 1786.66 2012.99 1795.53 1995.86C1810.29 1966.32 1839.83 1948.6 1873.5 1948.6C1892.41 1948.6 1907.76 1952.74 1921.35 1962.19ZM2275.79 1962.19C2312.41 1986.41 2316.55 2003.54 2316.55 2122.87C2316.55 2212.07 2314.78 2232.74 2305.92 2249.87C2274.61 2313.08 2181.27 2313.08 2149.96 2249.87C2141.1 2232.74 2139.33 2212.07 2139.33 2122.87C2139.33 2033.67 2141.1 2012.99 2149.96 1995.86C2164.73 1966.32 2194.27 1948.6 2227.94 1948.6C2246.84 1948.6 2262.2 1952.74 2275.79 1962.19ZM2630.23 1962.19C2666.85 1986.41 2670.99 2003.54 2670.99 2122.87C2670.99 2212.07 2669.22 2232.74 2660.36 2249.87C2629.05 2313.08 2535.71 2313.08 2504.4 2249.87C2495.54 2232.74 2493.77 2212.07 2493.77 2122.87C2493.77 2033.67 2495.54 2012.99 2504.4 1995.86C2519.17 1966.32 2548.71 1948.6 2582.38 1948.6C2601.28 1948.6 2616.64 1952.74 2630.23 1962.19Z" fill="#fff"/>
</svg>
