<svg width="358" height="83" viewBox="0 0 358 83" fill="none" xmlns="http://www.w3.org/2000/svg">
<path d="M0 24C0 12.9543 8.9543 4 20 4H338C349.046 4 358 12.9543 358 24V59C358 70.0457 349.046 79 338 79H20C8.95431 79 0 70.0457 0 59V24Z" fill="#68C151"/>
<path d="M105.545 19.9956L88.835 66H82.0054L101.246 15.5234H105.649L105.545 19.9956ZM119.551 66L102.806 19.9956L102.702 15.5234H107.105L126.415 66H119.551ZM118.684 47.314V52.7915H90.3257V47.314H118.684ZM147.216 61.4238C148.741 61.4238 150.151 61.1118 151.445 60.4878C152.74 59.8638 153.803 59.0086 154.635 57.9224C155.467 56.813 155.941 55.5534 156.056 54.1436H162.158C162.042 56.3623 161.291 58.4308 159.904 60.3491C158.541 62.2443 156.75 63.7812 154.531 64.96C152.312 66.1156 149.874 66.6934 147.216 66.6934C144.396 66.6934 141.935 66.1965 139.832 65.2026C137.751 64.2088 136.018 62.8452 134.631 61.1118C133.268 59.3784 132.239 57.3908 131.546 55.1489C130.876 52.884 130.541 50.4919 130.541 47.9727V46.5166C130.541 43.9974 130.876 41.6169 131.546 39.375C132.239 37.11 133.268 35.1108 134.631 33.3774C136.018 31.644 137.751 30.2804 139.832 29.2866C141.935 28.2928 144.396 27.7959 147.216 27.7959C150.151 27.7959 152.716 28.3968 154.912 29.5986C157.108 30.7773 158.83 32.3952 160.078 34.4521C161.349 36.486 162.042 38.7972 162.158 41.3857H156.056C155.941 39.8372 155.501 38.439 154.739 37.1909C153.999 35.9429 152.982 34.9491 151.688 34.2095C150.417 33.4468 148.926 33.0654 147.216 33.0654C145.251 33.0654 143.599 33.4583 142.258 34.2441C140.941 35.0068 139.889 36.0469 139.104 37.3643C138.341 38.6585 137.786 40.103 137.439 41.6978C137.116 43.2694 136.954 44.8757 136.954 46.5166V47.9727C136.954 49.6136 137.116 51.2314 137.439 52.8262C137.763 54.4209 138.306 55.8654 139.069 57.1597C139.855 58.4539 140.906 59.494 142.224 60.2798C143.564 61.0425 145.228 61.4238 147.216 61.4238ZM185.073 28.4893V33.4121H164.792V28.4893H185.073ZM171.657 19.3716H178.07V56.709C178.07 57.9801 178.267 58.9393 178.66 59.5864C179.053 60.2336 179.561 60.6611 180.185 60.8691C180.809 61.0771 181.479 61.1812 182.196 61.1812C182.727 61.1812 183.282 61.1349 183.86 61.0425C184.461 60.9269 184.911 60.8345 185.212 60.7651L185.247 66C184.738 66.1618 184.068 66.312 183.236 66.4507C182.427 66.6125 181.445 66.6934 180.289 66.6934C178.717 66.6934 177.273 66.3813 175.956 65.7573C174.638 65.1333 173.587 64.0933 172.801 62.6372C172.038 61.158 171.657 59.1704 171.657 56.6743V19.3716ZM199.564 28.4893V66H193.116V28.4893H199.564ZM192.631 18.5396C192.631 17.4995 192.943 16.6213 193.567 15.9048C194.214 15.1883 195.162 14.8301 196.41 14.8301C197.635 14.8301 198.571 15.1883 199.218 15.9048C199.888 16.6213 200.223 17.4995 200.223 18.5396C200.223 19.5334 199.888 20.3885 199.218 21.105C198.571 21.7983 197.635 22.145 196.41 22.145C195.162 22.145 194.214 21.7983 193.567 21.105C192.943 20.3885 192.631 19.5334 192.631 18.5396ZM221.267 60.2104L231.528 28.4893H238.081L224.595 66H220.296L221.267 60.2104ZM212.704 28.4893L223.277 60.3838L224.005 66H219.707L206.117 28.4893H212.704ZM259.332 66.6934C256.72 66.6934 254.351 66.2542 252.225 65.376C250.122 64.4746 248.308 63.215 246.782 61.5972C245.28 59.9793 244.124 58.061 243.315 55.8423C242.507 53.6235 242.102 51.1968 242.102 48.562V47.106C242.102 44.0552 242.553 41.3395 243.454 38.959C244.355 36.5553 245.58 34.5215 247.129 32.8574C248.677 31.1934 250.434 29.9338 252.398 29.0786C254.363 28.2235 256.397 27.7959 258.5 27.7959C261.181 27.7959 263.492 28.2581 265.434 29.1826C267.398 30.1071 269.004 31.4014 270.252 33.0654C271.5 34.7064 272.425 36.6478 273.026 38.8896C273.627 41.1084 273.927 43.5352 273.927 46.1699V49.0474H245.916V43.8125H267.514V43.3271C267.421 41.6631 267.075 40.0452 266.474 38.4736C265.896 36.902 264.971 35.6077 263.7 34.5908C262.429 33.5739 260.696 33.0654 258.5 33.0654C257.044 33.0654 255.703 33.3774 254.479 34.0015C253.254 34.6024 252.202 35.5037 251.324 36.7056C250.445 37.9074 249.764 39.375 249.278 41.1084C248.793 42.8418 248.55 44.841 248.55 47.106V48.562C248.55 50.3416 248.793 52.0173 249.278 53.5889C249.787 55.1374 250.515 56.501 251.462 57.6797C252.433 58.8584 253.6 59.7829 254.964 60.4531C256.351 61.1234 257.922 61.4585 259.679 61.4585C261.944 61.4585 263.862 60.9963 265.434 60.0718C267.005 59.1473 268.38 57.9108 269.559 56.3623L273.442 59.4478C272.633 60.6727 271.604 61.8398 270.356 62.9492C269.108 64.0586 267.571 64.96 265.746 65.6533C263.943 66.3467 261.805 66.6934 259.332 66.6934Z" fill="white"/>
</svg>
