<svg width="78" height="78" viewBox="0 0 78 78" fill="none" xmlns="http://www.w3.org/2000/svg">
<path d="M21.5858 33.5858C20.8047 34.3668 20.8047 35.6332 21.5858 36.4142L34.3137 49.1421C35.0948 49.9232 36.3611 49.9232 37.1421 49.1421C37.9232 48.3611 37.9232 47.0948 37.1421 46.3137L25.8284 35L37.1421 23.6863C37.9232 22.9052 37.9232 21.6389 37.1421 20.8579C36.3611 20.0768 35.0948 20.0768 34.3137 20.8579L21.5858 33.5858ZM50 57C50 58.1046 50.8954 59 52 59C53.1046 59 54 58.1046 54 57H50ZM42 33H23V37H42V33ZM50 44.9978V57H54V44.9978H50ZM42 37C46.4189 37 50 40.5801 50 44.9978H54C54 38.3698 48.6268 33 42 33V37Z" fill="#fff"/>
<circle cx="39" cy="39" r="37" stroke="#fff" stroke-width="4"/>
</svg>
