<svg width="81" height="81" viewBox="0 0 81 81" fill="none" xmlns="http://www.w3.org/2000/svg">
<circle cx="40.5" cy="40.5" r="40" fill="#1E90FF" stroke="white"/>
<path d="M35.3893 60C34.7423 60 34.1042 59.8493 33.5255 59.5599C32.9468 59.2705 32.4435 58.8502 32.0554 58.3325L21.8335 44.7029C21.5051 44.265 21.2662 43.7668 21.1304 43.2366C20.9945 42.7064 20.9645 42.1546 21.0419 41.6128C21.1193 41.071 21.3027 40.5497 21.5816 40.0788C21.8604 39.6078 22.2293 39.1964 22.6672 38.868C23.1051 38.5397 23.6033 38.3007 24.1335 38.1649C24.6637 38.0291 25.2155 37.999 25.7573 38.0765C26.2991 38.1539 26.8203 38.3373 27.2913 38.6161C27.7622 38.895 28.1736 39.2639 28.502 39.7018L35.1895 48.6179L52.3656 22.8539C52.9791 21.9349 53.9324 21.2971 55.0159 21.0807C56.0995 20.8643 57.2246 21.0871 58.144 21.7C59.0634 22.3129 59.7018 23.2659 59.9188 24.3493C60.1358 25.4328 59.9138 26.558 59.3014 27.4778L38.8576 58.1439C38.4877 58.6985 37.9903 59.1564 37.4071 59.4791C36.8238 59.8018 36.1716 59.98 35.5053 59.9986C35.4666 59.9993 35.428 60 35.3893 60Z" fill="white"/>
</svg>
