<svg width="139" height="139" viewBox="0 0 139 139" fill="none" xmlns="http://www.w3.org/2000/svg">
<path d="M135.162 119.485L19.5478 3.87126C15.2189 -0.457676 8.20026 -0.457674 3.87132 3.87126C-0.457618 8.2002 -0.457617 15.2188 3.87132 19.5477L119.485 135.162C123.814 139.491 130.833 139.491 135.162 135.162C139.491 130.833 139.491 123.814 135.162 119.485Z" fill="black"/>
<path d="M19.5477 135.162L135.162 19.5477C139.491 15.2188 139.491 8.2002 135.162 3.87126C130.833 -0.457679 123.814 -0.457678 119.485 3.87126L3.87122 119.485C-0.457718 123.814 -0.457711 130.833 3.87123 135.162C8.20017 139.491 15.2188 139.491 19.5477 135.162Z" fill="black"/>
</svg>
