<svg width="3027" height="2835" viewBox="0 0 3027 2835" fill="none" xmlns="http://www.w3.org/2000/svg">
<path d="M0 24C0 12.9543 8.9543 4 20 4H338C349.046 4 358 12.9543 358 24V59C358 70.0457 349.046 79 338 79H20C8.95431 79 0 70.0457 0 59V24Z" fill="#E60012"/>
<path d="M68.0352 15.5234V66H61.3442V15.5234H68.0352ZM85.6465 36.4976V66H79.2329V28.4893H85.2998L85.6465 36.4976ZM84.1211 45.8232L81.4517 45.7192C81.4748 43.1538 81.8561 40.7848 82.5957 38.6123C83.3353 36.4167 84.3753 34.5099 85.7158 32.8921C87.0563 31.2743 88.651 30.0262 90.5 29.1479C92.3721 28.2466 94.4406 27.7959 96.7056 27.7959C98.5545 27.7959 100.219 28.0501 101.698 28.5586C103.177 29.0439 104.437 29.8298 105.477 30.916C106.54 32.0023 107.349 33.4121 107.903 35.1455C108.458 36.8558 108.735 38.9474 108.735 41.4204V66H102.287V41.3511C102.287 39.3866 101.998 37.8149 101.42 36.6362C100.843 35.4344 99.999 34.5677 98.8896 34.0361C97.7803 33.4814 96.4167 33.2041 94.7988 33.2041C93.2041 33.2041 91.748 33.5392 90.4307 34.2095C89.1364 34.8797 88.0155 35.8042 87.0679 36.9829C86.1434 38.1616 85.4154 39.5137 84.8838 41.0391C84.3753 42.5413 84.1211 44.1361 84.1211 45.8232ZM140.595 59.5864V40.2764C140.595 38.7972 140.295 37.5145 139.694 36.4282C139.116 35.3188 138.238 34.4637 137.059 33.8628C135.88 33.2619 134.424 32.9614 132.691 32.9614C131.073 32.9614 129.652 33.2388 128.427 33.7935C127.225 34.3481 126.277 35.0762 125.584 35.9775C124.914 36.8789 124.579 37.8496 124.579 38.8896H118.165C118.165 37.5492 118.512 36.2202 119.205 34.9028C119.898 33.5854 120.892 32.3952 122.187 31.332C123.504 30.2458 125.076 29.3906 126.901 28.7666C128.75 28.1195 130.807 27.7959 133.072 27.7959C135.799 27.7959 138.203 28.2581 140.283 29.1826C142.386 30.1071 144.027 31.5054 145.206 33.3774C146.408 35.2264 147.009 37.5492 147.009 40.3457V57.8184C147.009 59.0664 147.113 60.3953 147.321 61.8052C147.552 63.215 147.887 64.4284 148.326 65.4453V66H141.635C141.312 65.2604 141.057 64.2782 140.873 63.0532C140.688 61.8052 140.595 60.6496 140.595 59.5864ZM141.705 43.2578L141.774 47.7646H135.291C133.465 47.7646 131.836 47.9149 130.403 48.2153C128.97 48.4927 127.768 48.9202 126.797 49.498C125.827 50.0758 125.087 50.8039 124.579 51.6821C124.07 52.5373 123.816 53.5426 123.816 54.6982C123.816 55.877 124.082 56.9517 124.613 57.9224C125.145 58.8931 125.942 59.6673 127.005 60.2451C128.092 60.7998 129.421 61.0771 130.992 61.0771C132.957 61.0771 134.69 60.6611 136.192 59.8291C137.695 58.9971 138.885 57.9801 139.763 56.7783C140.665 55.5765 141.15 54.4093 141.219 53.2769L143.958 56.3623C143.796 57.333 143.357 58.4077 142.641 59.5864C141.924 60.7651 140.965 61.8976 139.763 62.9839C138.584 64.047 137.175 64.9368 135.534 65.6533C133.916 66.3467 132.09 66.6934 130.056 66.6934C127.514 66.6934 125.284 66.1965 123.365 65.2026C121.47 64.2088 119.991 62.8799 118.928 61.2158C117.888 59.5286 117.368 57.645 117.368 55.5649C117.368 53.5542 117.761 51.7861 118.546 50.2607C119.332 48.7122 120.465 47.4295 121.944 46.4126C123.423 45.3726 125.203 44.5868 127.283 44.0552C129.363 43.5236 131.686 43.2578 134.251 43.2578H141.705ZM172.108 61.4238C173.634 61.4238 175.044 61.1118 176.338 60.4878C177.632 59.8638 178.695 59.0086 179.527 57.9224C180.359 56.813 180.833 55.5534 180.949 54.1436H187.05C186.935 56.3623 186.184 58.4308 184.797 60.3491C183.433 62.2443 181.642 63.7812 179.423 64.96C177.205 66.1156 174.766 66.6934 172.108 66.6934C169.289 66.6934 166.827 66.1965 164.724 65.2026C162.644 64.2088 160.911 62.8452 159.524 61.1118C158.16 59.3784 157.132 57.3908 156.438 55.1489C155.768 52.884 155.433 50.4919 155.433 47.9727V46.5166C155.433 43.9974 155.768 41.6169 156.438 39.375C157.132 37.11 158.16 35.1108 159.524 33.3774C160.911 31.644 162.644 30.2804 164.724 29.2866C166.827 28.2928 169.289 27.7959 172.108 27.7959C175.044 27.7959 177.609 28.3968 179.805 29.5986C182 30.7773 183.722 32.3952 184.97 34.4521C186.241 36.486 186.935 38.7972 187.05 41.3857H180.949C180.833 39.8372 180.394 38.439 179.631 37.1909C178.892 35.9429 177.875 34.9491 176.581 34.2095C175.309 33.4468 173.819 33.0654 172.108 33.0654C170.144 33.0654 168.491 33.4583 167.151 34.2441C165.833 35.0068 164.782 36.0469 163.996 37.3643C163.233 38.6585 162.679 40.103 162.332 41.6978C162.008 43.2694 161.847 44.8757 161.847 46.5166V47.9727C161.847 49.6136 162.008 51.2314 162.332 52.8262C162.656 54.4209 163.199 55.8654 163.961 57.1597C164.747 58.4539 165.799 59.494 167.116 60.2798C168.457 61.0425 170.121 61.4238 172.108 61.4238ZM209.966 28.4893V33.4121H189.685V28.4893H209.966ZM196.549 19.3716H202.963V56.709C202.963 57.9801 203.159 58.9393 203.552 59.5864C203.945 60.2336 204.454 60.6611 205.078 60.8691C205.702 61.0771 206.372 61.1812 207.088 61.1812C207.62 61.1812 208.175 61.1349 208.752 61.0425C209.353 60.9269 209.804 60.8345 210.104 60.7651L210.139 66C209.631 66.1618 208.96 66.312 208.128 66.4507C207.319 66.6125 206.337 66.6934 205.182 66.6934C203.61 66.6934 202.166 66.3813 200.848 65.7573C199.531 65.1333 198.479 64.0933 197.693 62.6372C196.931 61.158 196.549 59.1704 196.549 56.6743V19.3716ZM224.457 28.4893V66H218.009V28.4893H224.457ZM217.523 18.5396C217.523 17.4995 217.835 16.6213 218.459 15.9048C219.107 15.1883 220.054 14.8301 221.302 14.8301C222.527 14.8301 223.463 15.1883 224.11 15.9048C224.781 16.6213 225.116 17.4995 225.116 18.5396C225.116 19.5334 224.781 20.3885 224.11 21.105C223.463 21.7983 222.527 22.145 221.302 22.145C220.054 22.145 219.107 21.7983 218.459 21.105C217.835 20.3885 217.523 19.5334 217.523 18.5396ZM246.159 60.2104L256.421 28.4893H262.973L249.487 66H245.188L246.159 60.2104ZM237.596 28.4893L248.17 60.3838L248.898 66H244.599L231.009 28.4893H237.596ZM284.225 66.6934C281.613 66.6934 279.244 66.2542 277.118 65.376C275.014 64.4746 273.2 63.215 271.675 61.5972C270.173 59.9793 269.017 58.061 268.208 55.8423C267.399 53.6235 266.995 51.1968 266.995 48.562V47.106C266.995 44.0552 267.445 41.3395 268.347 38.959C269.248 36.5553 270.473 34.5215 272.021 32.8574C273.57 31.1934 275.326 29.9338 277.291 29.0786C279.256 28.2235 281.289 27.7959 283.393 27.7959C286.074 27.7959 288.385 28.2581 290.326 29.1826C292.291 30.1071 293.897 31.4014 295.145 33.0654C296.393 34.7064 297.318 36.6478 297.918 38.8896C298.519 41.1084 298.82 43.5352 298.82 46.1699V49.0474H270.808V43.8125H292.406V43.3271C292.314 41.6631 291.967 40.0452 291.366 38.4736C290.788 36.902 289.864 35.6077 288.593 34.5908C287.322 33.5739 285.588 33.0654 283.393 33.0654C281.937 33.0654 280.596 33.3774 279.371 34.0015C278.146 34.6024 277.095 35.5037 276.216 36.7056C275.338 37.9074 274.656 39.375 274.171 41.1084C273.686 42.8418 273.443 44.841 273.443 47.106V48.562C273.443 50.3416 273.686 52.0173 274.171 53.5889C274.679 55.1374 275.407 56.501 276.355 57.6797C277.326 58.8584 278.493 59.7829 279.856 60.4531C281.243 61.1234 282.815 61.4585 284.571 61.4585C286.836 61.4585 288.755 60.9963 290.326 60.0718C291.898 59.1473 293.273 57.9108 294.452 56.3623L298.334 59.4478C297.526 60.6727 296.497 61.8398 295.249 62.9492C294.001 64.0586 292.464 64.96 290.638 65.6533C288.835 66.3467 286.698 66.6934 284.225 66.6934Z" fill="white"/>
</svg>
