<svg width="74" height="86" viewBox="0 0 74 86" fill="none" xmlns="http://www.w3.org/2000/svg">
<path d="M20.8787 85.1213C22.0503 86.2929 23.9497 86.2929 25.1213 85.1213L44.2132 66.0294C45.3848 64.8579 45.3848 62.9584 44.2132 61.7868C43.0416 60.6152 41.1421 60.6152 39.9706 61.7868L23 78.7574L6.02944 61.7868C4.85786 60.6152 2.95837 60.6152 1.7868 61.7868C0.615223 62.9584 0.615223 64.8579 1.7868 66.0294L20.8787 85.1213ZM20 41L20 83L26 83L26 41L20 41Z" fill="#2d333a"/>
<path d="M53.1213 0.87868C51.9497 -0.292893 50.0503 -0.292893 48.8787 0.87868L29.7868 19.9706C28.6152 21.1421 28.6152 23.0416 29.7868 24.2132C30.9584 25.3848 32.8579 25.3848 34.0294 24.2132L51 7.24264L67.9706 24.2132C69.1421 25.3848 71.0416 25.3848 72.2132 24.2132C73.3848 23.0416 73.3848 21.1421 72.2132 19.9706L53.1213 0.87868ZM54 45L54 3L48 3L48 45L54 45Z" fill="#2d333a"/>
</svg>